<?xml version="1.0" encoding="utf-8"?>
<!-- Generator: Adobe Illustrator 16.0.4, SVG Export Plug-In . SVG Version: 6.00 Build 0)  -->
<!DOCTYPE svg PUBLIC "-//W3C//DTD SVG 1.1//EN" "http://www.w3.org/Graphics/SVG/1.1/DTD/svg11.dtd">
<svg version="1.1" id="Layer_1" xmlns="http://www.w3.org/2000/svg" xmlns:xlink="http://www.w3.org/1999/xlink" x="0px" y="0px"
	 width="153.357px" height="155.455px" viewBox="0 0 153.357 155.455" enable-background="new 0 0 153.357 155.455"
	 xml:space="preserve">
<path fill="#222222" d="M152.322,86.769c-1.406-1.832-3.333-1.981-4-1.971h-67.91V94.89l23.501,0.004
	c0.146,0,1.438,0.032,2.364,1.191c0.962,1.193,0.479,2.807,0.478,2.814l-4.42,13.603c-0.007,0.021-0.746,1.954-2.89,1.966
	l-36.035-0.002l-0.142,0.006c-0.442,0-1.94-0.146-2.788-2.002L49.289,78.021c-0.021-0.088-0.629-2.156,1.172-3.464l29.078-21.129
	c0.008-0.006,0.778-0.641,1.865-0.641c0.611,0,1.227,0.201,1.791,0.569l16.034,11.658l5.927-8.166l-20.68-15.014
	c-0.124-0.104-1.268-1.019-3.021-1.019c-0.993,0-1.979,0.295-2.992,0.92l-38.729,28.14c-0.116,0.073-2.828,1.841-1.874,5.633
	l1.688,5.263c0.012,0.021,0.472,1.479-0.396,2.746c-0.854,1.242-2.478,1.279-2.48,1.279L20.327,84.8
	c-0.455,0-2.006-0.154-2.831-2.066l-5.937-18.271c-0.064-0.201-0.579-2.007,1.186-3.29l66.896-48.6
	c0.008-0.007,0.762-0.604,1.792-0.604c0.627,0,1.25,0.223,1.853,0.662l35.448,25.76l5.963-8.137L84.499,1.056
	C84.233,0.832,83.153,0.024,81.344,0c-1.674,0-2.65,0.746-2.936,0.991L2.066,56.512c-0.116,0.074-2.834,1.85-1.854,5.686
	L9.69,91.313c0.369,1.23,1.853,3.576,4.83,3.576h27.41l0.11-0.01c0.446,0,1.965,0.154,2.769,2.062l7.854,24.143
	c0.05,0.145,1.271,3.488,4.979,3.488l47.716-0.018c1.354,0,3.895-0.75,4.812-3.563l7.863-24.173
	c0.029-0.077,0.736-1.924,2.833-1.928h16.403c0.217,0,1.351,0.057,2.328,1.146c1.005,1.128,0.479,2.931,0.478,2.934l-14.445,44.371
	c-0.022,0.078-0.731,2.018-2.927,2.018l-82.697-0.012c-0.315,0-1.977-0.104-2.847-2.09l-8.521-26.244l-9.604,3.112l10.396,31.981
	c0.049,0.136,1.25,3.309,4.737,3.32l94.497,0.02c1.573,0,3.767-0.896,4.77-3.463l19.713-60.66
	C153.178,91.233,153.95,88.886,152.322,86.769z M128.671,154.455L128.671,154.455L128.671,154.455L128.671,154.455z"/>
</svg>
