<?xml version="1.0" encoding="UTF-8" standalone="no"?>
<svg width="37px" height="48px" viewBox="0 0 37 48" version="1.1" xmlns="http://www.w3.org/2000/svg" xmlns:xlink="http://www.w3.org/1999/xlink">
    <!-- Generator: Sketch 40.3 (33839) - http://www.bohemiancoding.com/sketch -->
    <title>Fill 1</title>
    <desc>Created with Sketch.</desc>
    <defs></defs>
    <g id="Page-1" stroke="none" stroke-width="1" fill="none" fill-rule="evenodd">
        <g id="Desktop-HD-Copy-3" transform="translate(-702.000000, -3746.000000)" fill="#444444">
            <path d="M724.883421,3765.20194 C725.159166,3764.21027 724.953045,3762.72083 723.980629,3762.01731 C722.651699,3761.05601 721.708088,3759.79456 720.923699,3758.38695 C720.87984,3758.3083 720.791689,3758.24295 720.709327,3758.19885 C719.838814,3757.73273 718.993776,3757.22772 718.261351,3756.55789 C717.835648,3756.16868 717.407049,3755.75317 717.334241,3755.15461 C717.284448,3754.74589 717.330623,3754.31447 717.401983,3753.90517 C717.47841,3753.46637 717.588563,3753.0215 717.76559,3752.61466 C718.133394,3751.76974 718.821236,3751.36232 719.739517,3751.33991 C719.89237,3751.33615 720.045224,3751.33933 720.198223,3751.33847 C720.204881,3751.33847 720.211539,3751.33167 720.239476,3751.31635 C720.201552,3751.05813 720.154653,3750.79182 720.124691,3750.52377 C720.029736,3749.67408 720.057383,3748.83524 720.327772,3748.0123 C720.862181,3746.38507 722.742456,3745.71379 723.889438,3746.11182 C724.464955,3746.31133 724.941031,3746.65587 725.289729,3747.14064 C726.073973,3748.2309 726.846926,3749.33042 727.591654,3750.44801 C728.564504,3751.9084 729.495957,3753.3964 730.46432,3754.85982 C731.011756,3755.68709 731.604354,3756.4843 732.164384,3757.30333 C733.02737,3758.56521 733.629811,3759.93741 734.081859,3761.40488 C735.064407,3764.59442 736.284921,3767.70242 737.508764,3770.8068 C737.796234,3771.53606 738.173302,3772.23365 738.416333,3772.97606 C738.908187,3774.47823 738.827852,3775.9697 738.231635,3777.44743 C737.011411,3780.47158 735.886865,3783.53114 734.951793,3786.65693 C734.867261,3786.93929 734.872182,3787.24926 734.779399,3787.52772 C734.648112,3787.92199 734.508141,3788.32493 734.29623,3788.679 C733.134773,3790.62083 731.466265,3791.91712 729.295915,3792.59418 C727.629578,3793.11408 725.942686,3793.53018 724.205133,3793.68415 C722.844069,3793.80473 721.475912,3793.87977 720.109782,3793.89943 C718.839619,3793.91765 717.581471,3793.73953 716.353285,3793.39153 C714.80593,3792.95317 713.470342,3792.17678 712.358244,3791.00006 C711.261489,3789.83967 710.092506,3788.74623 709.018477,3787.56618 C708.462934,3786.95591 708.025072,3786.23403 707.568827,3785.53962 C706.948872,3784.59625 706.383776,3783.61644 705.753688,3782.68015 C705.341157,3782.067 704.843948,3781.51153 704.404783,3780.91558 C703.679307,3779.931 703.164004,3778.85172 703.009269,3777.62468 C702.972069,3777.33003 702.929802,3777.02859 702.953107,3776.73524 C703.03156,3775.74878 702.812701,3774.80974 702.545207,3773.87591 C702.383813,3773.31249 702.186667,3772.75789 702.052486,3772.18825 C701.863445,3771.38555 702.192023,3770.71558 702.91967,3770.33042 C703.526453,3770.00931 704.187951,3769.8964 704.862765,3769.86025 C706.990559,3769.74618 708.584667,3770.67827 709.772468,3772.38762 C710.589136,3773.5629 711.075488,3774.87943 711.426502,3776.25567 C711.55417,3776.75649 711.704852,3777.25355 711.880142,3777.73977 C712.10204,3778.35582 712.528467,3778.7709 713.17028,3778.97071 C713.751876,3779.15172 714.312051,3779.40618 714.899003,3779.56362 C715.965795,3779.84989 716.958331,3779.5736 717.883849,3779.03533 C718.767679,3778.52121 719.629798,3777.96979 720.510444,3777.45032 C721.049195,3777.13254 721.608067,3776.84931 722.15145,3776.53948 C722.322687,3776.44189 722.481041,3776.3177 722.631724,3776.18974 C722.83741,3776.01495 722.944813,3775.79447 722.959143,3775.51268 C722.980132,3775.10194 723.061046,3774.69379 723.074797,3774.28319 C723.099114,3773.55654 722.807882,3773.12627 722.099486,3773.00324 C720.810072,3772.779 719.781493,3772.08719 718.815446,3771.28015 C718.319395,3770.86565 717.885152,3770.37784 717.413997,3769.93254 C717.35523,3769.87702 717.240589,3769.85476 717.153596,3769.85852 C716.099976,3769.9055 715.04708,3769.96825 713.993171,3770.00873 C713.566165,3770.02521 713.116723,3770.07596 712.714468,3769.97056 C712.165729,3769.82671 711.686759,3769.99948 711.182747,3770.10488 C710.315996,3770.28618 709.444325,3770.37437 708.569613,3770.1737 C707.642648,3769.96102 707.053669,3769.39731 706.839732,3768.459 C706.665745,3767.69678 706.532287,3766.93124 706.6656,3766.14748 C706.850588,3765.05895 707.517296,3764.35601 708.484936,3763.89423 C709.321579,3763.49505 710.221476,3763.32488 711.122966,3763.16671 C712.558141,3762.91485 714.000409,3762.70174 715.431386,3762.42907 C716.530746,3762.21972 717.604775,3762.35852 718.548965,3762.8644 C720.104281,3763.69803 721.787265,3764.14941 723.428416,3764.73047 C723.908545,3764.90049 724.397648,3765.04536 724.883421,3765.20194" id="Fill-1"></path>
        </g>
    </g>
</svg>