<svg xmlns="http://www.w3.org/2000/svg" viewBox="0 0 36.78 47.91"><defs><style>.a{fill:#111;}</style></defs><title>OKhand</title><path class="a" d="M22.9,19.2A3,3,0,0,0,22,16a11.88,11.88,0,0,1-3.1-3.6,0.38,0.38,0,0,0-.2-0.2,14.3,14.3,0,0,1-2.4-1.6,2.16,2.16,0,0,1-.9-1.4A4.87,4.87,0,0,1,15.5,8a6.47,6.47,0,0,1,.4-1.3,2.19,2.19,0,0,1,2-1.3h0.5c0-.3-0.1-0.5-0.1-0.8a5.33,5.33,0,0,1,.2-2.5A3,3,0,0,1,22.1.2a2.43,2.43,0,0,1,1.4,1c0.8,1.1,1.6,2.2,2.3,3.3,1,1.5,1.9,2.9,2.9,4.4,0.5,0.8,1.1,1.6,1.7,2.4a12.76,12.76,0,0,1,1.9,4.1c1,3.2,2.2,6.3,3.4,9.4a14.46,14.46,0,0,1,.9,2.2,6.36,6.36,0,0,1-.2,4.5c-1.2,3-2.3,6.1-3.3,9.2-0.1.3-.1,0.6-0.2,0.9a6.11,6.11,0,0,1-.5,1.2,8.88,8.88,0,0,1-5,3.9,31,31,0,0,1-5.1,1.1c-1.4.1-2.7,0.2-4.1,0.2a16.51,16.51,0,0,1-3.8-.5,8.3,8.3,0,0,1-4-2.4c-1.1-1.2-2.3-2.3-3.3-3.4a9,9,0,0,1-1.4-2c-0.6-.9-1.2-1.9-1.8-2.9C3.5,36.2,3,35.6,2.6,35a8.06,8.06,0,0,1-1.4-3.3c0-.3-0.1-0.6-0.1-0.9a7.28,7.28,0,0,0-.4-2.9,10.93,10.93,0,0,1-.5-1.7,1.57,1.57,0,0,1,.9-1.9A6.69,6.69,0,0,1,3,23.8a5.39,5.39,0,0,1,4.9,2.5,13.59,13.59,0,0,1,1.7,3.9,8.8,8.8,0,0,0,.5,1.5,1.76,1.76,0,0,0,1.3,1.2c0.6,0.2,1.1.4,1.7,0.6a3.9,3.9,0,0,0,3-.5c0.9-.5,1.7-1.1,2.6-1.6,0.5-.3,1.1-0.6,1.6-0.9,0.2-.1.3-0.2,0.5-0.3a0.91,0.91,0,0,0,.3-0.7c0-.4.1-0.8,0.1-1.2a1.15,1.15,0,0,0-1-1.3,7,7,0,0,1-3.3-1.7c-0.5-.4-0.9-0.9-1.4-1.3a0.37,0.37,0,0,0-.3-0.1c-1.1,0-2.1.1-3.2,0.2a5.65,5.65,0,0,1-1.3,0,3.81,3.81,0,0,0-1.5.1,5.72,5.72,0,0,1-2.6.1,2.13,2.13,0,0,1-1.7-1.7,6,6,0,0,1-.2-2.3A3.26,3.26,0,0,1,6.5,18a7.71,7.71,0,0,1,2.6-.7c1.4-.3,2.9-0.5,4.3-0.7a4.66,4.66,0,0,1,3.1.4,41.36,41.36,0,0,0,4.9,1.9,4,4,0,0,1,1.5.3" transform="translate(-0.14 -0.09)"/></svg>