<svg xmlns="http://www.w3.org/2000/svg" viewBox="0 0 167.6 167.6"><title>SGlogo_square</title><path d="M174.4-6v167.6H342V-6H174.4ZM334.55,90.13l-20.4,62.4a3,3,0,0,1-2.85,2.07H214.5a3,3,0,0,1-2.85-2.07L200.45,118a3,3,0,0,1,5.71-1.85l10.53,32.43h92.44l18.44-56.4H300l-9.22,28.33a3,3,0,0,1-2.85,2.07H238a3,3,0,0,1-2.85-2.06L225.82,92.2H194.1a3,3,0,0,1-2.85-2.07l-9.4-28.9a3,3,0,0,1,1.1-3.36l78.2-56.4a3,3,0,0,1,3.51,0l45.5,32.8a3,3,0,1,1-3.51,4.87L262.9,7.6,188.23,61.45l8,24.75h27.57l-4.2-12.76a3,3,0,0,1,1.1-3.37L261.15,41a3,3,0,0,1,3.51,0l25.4,18.3a3,3,0,0,1-3.51,4.87l-23.65-17L226,73.65l14.13,42.95h45.55l8-24.43-30.51-.26a3,3,0,0,1,0-6h0l34.6,0.3H331.7A3,3,0,0,1,334.55,90.13Z" transform="translate(-174.4 6.05)"/></svg>