<?xml version="1.0" encoding="UTF-8"?>
<svg width="41px" height="41px" viewBox="0 0 41 41" version="1.1" xmlns="http://www.w3.org/2000/svg" xmlns:xlink="http://www.w3.org/1999/xlink">
    <!-- Generator: Sketch 62 (91390) - https://sketch.com -->
    <title>Combined Shape</title>
    <desc>Created with Sketch.</desc>
    <g id="home" stroke="none" stroke-width="1" fill="none" fill-rule="evenodd">
        <g id="Desktop-HD-Copy" transform="translate(-700.000000, -791.000000)" fill="#FFFFFF" fill-rule="nonzero">
            <g id="logo-gold" transform="translate(700.000000, 791.000000)">
                <path d="M28.7892107,32.6 L14.664061,32.6 L12.0111599,24.5996219 L3.08875365,24.6 L0.295159885,15.9776594 L21.8701497,0.257621879 L34.3533363,9.35336336 L33.6466637,10.3232158 L21.869,1.742 L1.704,16.435 L3.961,23.4 L11.6131599,23.3996219 L10.2910825,19.4076815 L21.7266284,11.2633868 L28.8268829,16.3201587 L28.1307504,17.297604 L21.726,12.736 L11.709,19.871 L15.53,31.4 L27.922,31.4 L30.171,24.614 L21.7869684,24.5387707 L21.7978837,23.3388204 L31.0311599,23.4226219 L31.0320106,23.4 L40.8360678,23.4 L35.0241766,40.6 L8.55616029,40.6 L5.43157884,31.3537778 L6.56842116,30.969604 L9.417,39.4 L34.163,39.4 L39.163,24.6 L31.4401599,24.5996219 L28.7892107,32.6 Z" id="Combined-Shape"></path>
            </g>
        </g>
    </g>
</svg>