<svg xmlns="http://www.w3.org/2000/svg" width="31" height="25" viewBox="0 0 31 25"><g transform="translate(0.668 -4.5)"><path d="M-2624.625-4259v-.4l1.939-1.881c.189-.188.189-.247.189-.535v-10.906l-5.394,13.688h-.73l-6.271-13.688v9.174a1.251,1.251,0,0,0,.347,1.052l2.521,3.056v.4h-7.145v-.4l2.521-3.06a1.211,1.211,0,0,0,.323-1.052v-10.608a.94.94,0,0,0-.3-.785l-2.238-2.7v-.4h6.957l5.379,11.795,4.729-11.795h6.634v.4l-1.915,1.836a.56.56,0,0,0-.214.537v13.5a.558.558,0,0,0,.214.537l1.87,1.836v.4Zm13.457-16v-6h-6v-2h8v8Z" transform="translate(2639 4288)" fill="#222" stroke="rgba(0,0,0,0)" stroke-miterlimit="10" stroke-width="1"/></g></svg>